<svg width="76" height="127" viewBox="0 0 76 127" fill="none" xmlns="http://www.w3.org/2000/svg">
<circle cx="4" cy="4" r="4" fill="#B311FF" fill-opacity="0.2"/>
<circle cx="4" cy="21" r="4" fill="#B311FF" fill-opacity="0.2"/>
<circle cx="4" cy="38" r="4" fill="#B311FF" fill-opacity="0.2"/>
<circle cx="4" cy="55" r="4" fill="#B311FF" fill-opacity="0.2"/>
<circle cx="4" cy="72" r="4" fill="#B311FF" fill-opacity="0.2"/>
<circle cx="4" cy="89" r="4" fill="#B311FF" fill-opacity="0.2"/>
<circle cx="4" cy="106" r="4" fill="#B311FF" fill-opacity="0.2"/>
<circle cx="4" cy="123" r="4" fill="#B311FF" fill-opacity="0.2"/>
<circle cx="21" cy="4" r="4" fill="#B311FF" fill-opacity="0.2"/>
<circle cx="21" cy="21" r="4" fill="#B311FF" fill-opacity="0.2"/>
<circle cx="21" cy="38" r="4" fill="#B311FF" fill-opacity="0.2"/>
<circle cx="21" cy="55" r="4" fill="#B311FF" fill-opacity="0.2"/>
<circle cx="21" cy="72" r="4" fill="#B311FF" fill-opacity="0.2"/>
<circle cx="21" cy="89" r="4" fill="#B311FF" fill-opacity="0.2"/>
<circle cx="21" cy="106" r="4" fill="#B311FF" fill-opacity="0.2"/>
<circle cx="21" cy="123" r="4" fill="#B311FF" fill-opacity="0.2"/>
<circle cx="38" cy="4" r="4" fill="#B311FF" fill-opacity="0.2"/>
<circle cx="38" cy="21" r="4" fill="#B311FF" fill-opacity="0.2"/>
<circle cx="38" cy="38" r="4" fill="#B311FF" fill-opacity="0.2"/>
<circle cx="38" cy="55" r="4" fill="#B311FF" fill-opacity="0.2"/>
<circle cx="38" cy="72" r="4" fill="#B311FF" fill-opacity="0.2"/>
<circle cx="38" cy="89" r="4" fill="#B311FF" fill-opacity="0.2"/>
<circle cx="38" cy="106" r="4" fill="#B311FF" fill-opacity="0.2"/>
<circle cx="38" cy="123" r="4" fill="#B311FF" fill-opacity="0.2"/>
<circle cx="55" cy="4" r="4" fill="#B311FF" fill-opacity="0.2"/>
<circle cx="55" cy="21" r="4" fill="#B311FF" fill-opacity="0.2"/>
<circle cx="55" cy="38" r="4" fill="#B311FF" fill-opacity="0.2"/>
<circle cx="55" cy="55" r="4" fill="#B311FF" fill-opacity="0.2"/>
<circle cx="55" cy="72" r="4" fill="#B311FF" fill-opacity="0.2"/>
<circle cx="55" cy="89" r="4" fill="#B311FF" fill-opacity="0.2"/>
<circle cx="55" cy="106" r="4" fill="#B311FF" fill-opacity="0.2"/>
<circle cx="55" cy="123" r="4" fill="#B311FF" fill-opacity="0.2"/>
<circle cx="72" cy="4" r="4" fill="#B311FF" fill-opacity="0.2"/>
<circle cx="72" cy="21" r="4" fill="#B311FF" fill-opacity="0.2"/>
<circle cx="72" cy="38" r="4" fill="#B311FF" fill-opacity="0.2"/>
<circle cx="72" cy="55" r="4" fill="#B311FF" fill-opacity="0.2"/>
<circle cx="72" cy="72" r="4" fill="#B311FF" fill-opacity="0.2"/>
<circle cx="72" cy="89" r="4" fill="#B311FF" fill-opacity="0.2"/>
<circle cx="72" cy="106" r="4" fill="#B311FF" fill-opacity="0.2"/>
<circle cx="72" cy="123" r="4" fill="#B311FF" fill-opacity="0.2"/>
</svg>
