<svg width="106" height="18" viewBox="0 0 106 18" fill="none" xmlns="http://www.w3.org/2000/svg">
<path d="M16.8926 9.28125V9.35156V9.43945C16.8926 9.61523 16.8809 9.86719 16.8574 10.1953C16.7988 10.7109 16.7109 11.2031 16.5938 11.6719C16.5234 11.9297 16.4648 12.123 16.418 12.252C16.1602 13.0137 15.7969 13.7402 15.3281 14.4316C15.3164 14.4434 15.2988 14.4609 15.2754 14.4844C15.2637 14.5078 15.252 14.5312 15.2402 14.5547C15.2168 14.5898 15.1816 14.6367 15.1348 14.6953C15.0879 14.7539 15.0527 14.8008 15.0293 14.8359L15.0117 14.8535C14.8008 15.123 14.6016 15.3516 14.4141 15.5391C14.2383 15.7148 14.0508 15.8848 13.8516 16.0488C13.6289 16.2363 13.5117 16.3359 13.5 16.3477C12.5508 17.0859 11.4844 17.5781 10.3008 17.8242C10.2891 17.8242 10.2715 17.8301 10.248 17.8418C10.2246 17.8418 10.207 17.8418 10.1953 17.8418C9.62109 17.9473 9.13477 18 8.73633 18H8.66602H8.63086C8.12695 18 7.66992 17.959 7.25977 17.877L6.99609 17.8242C5.8125 17.5781 4.73438 17.0859 3.76172 16.3477C3.38672 16.0547 3.08203 15.7852 2.84766 15.5391C2.54297 15.2344 2.26758 14.9062 2.02148 14.5547C1.27148 13.5234 0.773438 12.3516 0.527344 11.0391C0.480469 10.8164 0.439453 10.5352 0.404297 10.1953V10.1426C0.369141 9.87305 0.351562 9.60938 0.351562 9.35156C0.351562 9.08203 0.369141 8.80664 0.404297 8.52539C0.462891 7.91602 0.550781 7.41211 0.667969 7.01367C0.726562 6.80273 0.785156 6.61523 0.84375 6.45117C1.10156 5.68945 1.4707 4.96289 1.95117 4.27148C1.96289 4.25977 1.97461 4.24219 1.98633 4.21875C1.99805 4.19531 2.00977 4.17773 2.02148 4.16602C2.04492 4.13086 2.08008 4.08398 2.12695 4.02539C2.18555 3.95508 2.22656 3.90234 2.25 3.86719C2.56641 3.48047 2.76562 3.25195 2.84766 3.18164C3.07031 2.94727 3.36914 2.68359 3.74414 2.39062C4.74023 1.64062 5.82422 1.14258 6.99609 0.896484C7.04297 0.873047 7.08398 0.861328 7.11914 0.861328C7.62305 0.767578 8.10352 0.720703 8.56055 0.720703H8.63086H8.66602H8.73633C9.2168 0.720703 9.73828 0.779297 10.3008 0.896484C11.4727 1.14258 12.5449 1.64062 13.5176 2.39062H8.63086H8.4375C8.22656 2.39062 8.02148 2.4082 7.82227 2.44336H7.80469C7.53516 2.47852 7.26562 2.53125 6.99609 2.60156C6.10547 2.83594 5.29688 3.25195 4.57031 3.84961C3.85547 4.43555 3.28125 5.15039 2.84766 5.99414C2.53125 6.61523 2.30273 7.27148 2.16211 7.96289C2.11523 8.23242 2.08594 8.41992 2.07422 8.52539C2.07422 8.53711 2.06836 8.55469 2.05664 8.57812C2.05664 8.58984 2.05664 8.60156 2.05664 8.61328C2.0332 8.94141 2.02148 9.19336 2.02148 9.36914C2.02148 9.66211 2.03906 9.9375 2.07422 10.1953C2.17969 11.0977 2.4375 11.9414 2.84766 12.7266C3.28125 13.5703 3.85547 14.291 4.57031 14.8887C5.29688 15.4746 6.10547 15.8848 6.99609 16.1191C7.26562 16.1895 7.53516 16.2422 7.80469 16.2773C8.0625 16.3125 8.33789 16.3301 8.63086 16.3301H8.89453C9.08203 16.3301 9.27539 16.3125 9.47461 16.2773H9.50977C9.7793 16.2422 10.043 16.1895 10.3008 16.1191C11.1797 15.8848 11.9824 15.4629 12.709 14.8535C13.1191 14.502 13.5 14.0918 13.8516 13.623C14.0859 13.3184 14.2734 13.0195 14.4141 12.7266C14.7188 12.1641 14.9473 11.4961 15.0996 10.7227C15.1465 10.4883 15.1758 10.3125 15.1875 10.1953H8.63086C8.4082 10.1953 8.21484 10.1133 8.05078 9.94922C8.01562 9.91406 7.99219 9.88477 7.98047 9.86133L7.92773 9.80859C7.88086 9.71484 7.85156 9.64453 7.83984 9.59766C7.81641 9.55078 7.80469 9.50391 7.80469 9.45703V9.26367C7.80469 9.22852 7.81641 9.17578 7.83984 9.10547C7.83984 9.09375 7.8457 9.07617 7.85742 9.05273C7.86914 9.01758 7.88086 8.99414 7.89258 8.98242C7.89258 8.9707 7.89844 8.95898 7.91016 8.94727C7.93359 8.90039 7.96289 8.85938 7.99805 8.82422L8.06836 8.75391C8.11523 8.70703 8.15625 8.67188 8.19141 8.64844L8.22656 8.63086C8.23828 8.61914 8.25 8.61328 8.26172 8.61328C8.27344 8.61328 8.28516 8.60742 8.29688 8.5957C8.32031 8.58398 8.33789 8.57812 8.34961 8.57812C8.36133 8.57812 8.36719 8.57812 8.36719 8.57812L8.40234 8.56055C8.49609 8.53711 8.57227 8.52539 8.63086 8.52539H16.0664C16.2773 8.52539 16.4648 8.60156 16.6289 8.75391C16.793 8.89453 16.8809 9.07031 16.8926 9.28125ZM34.207 17.0332C34.2422 17.2676 34.1836 17.4902 34.0312 17.7012L33.9434 17.7891C33.9082 17.8242 33.8789 17.8477 33.8555 17.8594C33.8438 17.8594 33.8262 17.8652 33.8027 17.877C33.791 17.8887 33.7793 17.9004 33.7676 17.9121C33.7559 17.9238 33.7324 17.9297 33.6973 17.9297C33.6738 17.9297 33.6562 17.9355 33.6445 17.9473C33.5977 17.9707 33.5684 17.9824 33.5566 17.9824C33.5215 17.9941 33.4688 18 33.3984 18C33.3164 18 33.2578 17.9941 33.2227 17.9824C33.1289 17.959 33.0645 17.9355 33.0293 17.9121C33.0176 17.9004 33 17.8887 32.9766 17.877C32.9648 17.8652 32.9531 17.8594 32.9414 17.8594C32.918 17.8477 32.8945 17.8301 32.8711 17.8066C32.8594 17.7949 32.8359 17.7773 32.8008 17.7539L32.748 17.7012C32.7363 17.6895 32.7305 17.6777 32.7305 17.666C32.7305 17.6543 32.7246 17.6426 32.7129 17.6309C32.7012 17.6191 32.6895 17.6074 32.6777 17.5957C32.666 17.584 32.6602 17.5723 32.6602 17.5605V17.543H32.6426C32.6309 17.543 32.625 17.5371 32.625 17.5254L32.0801 16.3301L31.7461 15.627L31.7109 15.5566L30.9551 13.9395L28.793 9.36914H23.1152L20.9707 13.9219L20.1973 15.5566L20.1797 15.627L19.8281 16.3301L19.6875 16.6641L19.3887 16.3301H18.7383L19.3535 17.0508V17.1738C19.3535 17.3027 19.3184 17.4316 19.248 17.5605C19.2129 17.6309 19.166 17.6953 19.1074 17.7539C19.0488 17.8125 18.9844 17.8594 18.9141 17.8945L18.8789 17.9121L18.8438 17.9297C18.8203 17.9297 18.7852 17.9355 18.7383 17.9473C18.7031 17.959 18.6797 17.9707 18.668 17.9824L18.6504 18C18.6387 18 18.627 18 18.6152 18H18.5273H18.4219H18.3867L18.3516 17.9824C18.3398 17.9824 18.3223 17.9766 18.2988 17.9648H18.2637C18.252 17.9648 18.2461 17.9648 18.2461 17.9648C18.2461 17.9531 18.2402 17.9473 18.2285 17.9473C18.2168 17.9473 18.1992 17.9414 18.1758 17.9297C18.1641 17.9297 18.1465 17.9238 18.123 17.9121C18.0996 17.8887 18.082 17.8711 18.0703 17.8594C18.0234 17.8359 17.9883 17.8125 17.9648 17.7891C17.9297 17.7656 17.9004 17.7363 17.877 17.7012C17.8652 17.6895 17.8535 17.6777 17.8418 17.666C17.8301 17.6426 17.8242 17.625 17.8242 17.6133C17.8125 17.6016 17.7949 17.5781 17.7715 17.543V17.5078C17.7598 17.4961 17.7539 17.4844 17.7539 17.4727C17.7539 17.4492 17.748 17.4316 17.7363 17.4199C17.7246 17.4199 17.7188 17.4141 17.7188 17.4023V17.3496V17.332C17.707 17.3086 17.7012 17.291 17.7012 17.2793V17.2441V17.209V17.1387V17.0859V17.0332V17.0156L17.7188 16.998V16.9805L17.7715 16.8223L17.9824 16.3477L18.2637 15.7852L18.4922 15.293L19.0371 14.0977L19.3535 13.4473L19.5293 13.043L19.7754 12.5508L19.9336 12.2168L20.1797 11.707L21.2695 9.36914L22.0605 7.69922L24.4688 2.56641L24.5566 2.39062L25.1016 1.19531C25.2305 0.914062 25.4414 0.755859 25.7344 0.720703H25.752H25.8047H25.8223H25.875H25.9453H25.9629H25.9805H26.0508H26.1562H26.1738C26.4668 0.755859 26.6777 0.914062 26.8066 1.19531L27.3691 2.39062L27.457 2.56641L29.8652 7.69922L30.6387 9.36914L31.7461 11.707L31.9746 12.2168L32.5547 13.4473L32.8711 14.0977L33.4863 15.4336V15.4512L33.9258 16.3477C33.8906 16.3359 33.8379 16.3301 33.7676 16.3301H33.6094L34.207 17.0332ZM23.8887 7.69922H28.0195L26.8066 5.11523L25.9629 3.30469L25.1367 5.04492L23.8887 7.69922ZM50.7305 0.720703C50.9531 0.720703 51.1465 0.802734 51.3105 0.966797C51.4746 1.10742 51.5566 1.30078 51.5566 1.54688V16.3301H50.9766L51.5566 17.0156V17.1738V17.2617C51.5566 17.3086 51.5449 17.3555 51.5215 17.4023C51.5215 17.4141 51.5156 17.4375 51.5039 17.4727C51.5039 17.4961 51.498 17.5137 51.4863 17.5254C51.4746 17.5371 51.4688 17.5488 51.4688 17.5605C51.4688 17.5723 51.4629 17.584 51.4512 17.5957C51.416 17.666 51.3398 17.748 51.2227 17.8418L51.1172 17.8945C51.1172 17.9062 51.1113 17.9121 51.0996 17.9121C51.0879 17.9238 51.0645 17.9355 51.0293 17.9473C51.0059 17.959 50.9883 17.9648 50.9766 17.9648C50.9531 17.9766 50.9121 17.9824 50.8535 17.9824C50.8418 17.9824 50.8184 17.9883 50.7832 18C50.7598 18 50.7422 18 50.7305 18C50.6367 18 50.5723 17.9941 50.5371 17.9824C50.373 17.9473 50.2383 17.8652 50.1328 17.7363L49.0781 16.6289L48.7969 16.3301L48.5156 16.0488L47.373 14.8535L44.1387 11.4434L42.4688 9.70312L42.1523 9.36914L40.5703 7.69922L38.0742 5.08008L37.5117 4.48242L36.9316 3.88477L36.9141 3.86719L36.6855 3.62109V16.3301H36.1055L36.6855 17.0156V17.1738C36.6855 17.3965 36.6035 17.5898 36.4395 17.7539C36.2871 17.918 36.0938 18 35.8594 18C35.625 18 35.4258 17.918 35.2617 17.7539C35.0977 17.5898 35.0156 17.3965 35.0156 17.1738V2.37305L35.6484 2.39062L35.0156 1.66992V1.54688C35.0156 1.37109 35.0918 1.19531 35.2441 1.01953C35.2559 1.00781 35.2734 0.984375 35.2969 0.949219L35.6309 0.755859L35.8242 0.720703H35.8418H35.877C35.9355 0.720703 35.9824 0.726563 36.0176 0.738281C36.0527 0.738281 36.0938 0.75 36.1406 0.773438C36.2812 0.808594 36.3926 0.878906 36.4746 0.984375L37.5117 2.07422L37.8105 2.39062L38.0742 2.6543L39.2168 3.86719L42.4688 7.27734L42.873 7.69922L44.1387 9.03516L44.4551 9.36914L48.5156 13.623L49.0781 14.2207L49.6758 14.8535L49.8691 15.0645L49.9043 15.082V2.39062H50.5195L49.9043 1.66992V1.54688C49.9043 1.3125 49.9805 1.11914 50.1328 0.966797C50.2969 0.802734 50.4961 0.720703 50.7305 0.720703ZM68.7656 1.10742C68.918 1.35352 68.9297 1.61719 68.8008 1.89844L68.5898 2.37305L68.3262 2.93555L68.0801 3.42773L67.5352 4.62305L67.2188 5.27344L67.043 5.66016L66.8145 6.16992L66.6562 6.50391L66.4102 7.01367L65.3027 9.35156L64.5293 11.0215L62.1211 16.1543L62.0332 16.3301L61.4707 17.5254C61.3418 17.8066 61.1367 17.9648 60.8555 18H60.8379H60.6797H60.627H60.6094H60.5742H60.5215H60.416H60.3984C60.1055 17.9648 59.8945 17.8066 59.7656 17.5254L59.2207 16.3301L59.1328 16.1543L56.7246 11.0215L55.9336 9.35156L54.8438 7.01367L54.5977 6.50391L54.0176 5.27344L53.7188 4.62305L53.0859 3.26953H53.0684L52.6641 2.39062L52.9629 2.37305L52.3652 1.6875C52.3535 1.60547 52.3535 1.52344 52.3652 1.44141C52.3887 1.34766 52.4121 1.27148 52.4355 1.21289L52.4883 1.10742C52.5 1.08398 52.5176 1.06055 52.541 1.03711L52.5762 1.00195L52.6289 0.949219L52.6992 0.878906H52.7168C52.7285 0.878906 52.7344 0.873047 52.7344 0.861328C52.7344 0.849609 52.7461 0.837891 52.7695 0.826172L52.8047 0.808594C52.8516 0.785156 52.9219 0.761719 53.0156 0.738281C53.0273 0.738281 53.0391 0.738281 53.0508 0.738281C53.0742 0.726563 53.0918 0.720703 53.1035 0.720703H53.1387H53.1914H53.2617H53.2793C53.291 0.720703 53.3086 0.726563 53.332 0.738281H53.3496C53.3613 0.738281 53.373 0.744141 53.3848 0.755859C53.4082 0.755859 53.4258 0.755859 53.4375 0.755859C53.4492 0.767578 53.4668 0.779297 53.4902 0.791016C53.5254 0.802734 53.5547 0.814453 53.5781 0.826172C53.5781 0.837891 53.5898 0.84375 53.6133 0.84375C53.6367 0.84375 53.6484 0.849609 53.6484 0.861328L53.7012 0.914062C53.7129 0.925781 53.7305 0.943359 53.7539 0.966797C53.7891 0.990234 53.8125 1.00781 53.8242 1.01953L53.8418 1.05469C53.8535 1.07812 53.8652 1.08984 53.877 1.08984C53.8887 1.08984 53.8945 1.0957 53.8945 1.10742C53.8945 1.11914 53.9004 1.13086 53.9121 1.14258L53.9297 1.16016C53.9414 1.17188 53.9473 1.18359 53.9473 1.19531L54.5098 2.39062L54.8438 3.09375L54.8613 3.16406L55.6348 4.79883L57.7793 9.35156L58.5527 11.0215L59.7656 13.6055L60.627 15.416L61.4355 13.6758L62.6836 11.0215L63.4746 9.35156L65.6191 4.78125L66.375 3.16406L66.4102 3.09375L66.7441 2.39062L66.9023 2.05664L67.1836 2.39062H67.8516L67.2188 1.66992L67.1309 1.54688L67.3066 1.19531C67.3066 1.18359 67.3125 1.17188 67.3242 1.16016C67.3594 1.08984 67.4062 1.02539 67.4648 0.966797C67.4766 0.955078 67.4941 0.9375 67.5176 0.914062C67.5527 0.890625 67.5762 0.873047 67.5879 0.861328C67.5996 0.849609 67.6113 0.84375 67.623 0.84375C67.6348 0.84375 67.6465 0.837891 67.6582 0.826172C67.6582 0.814453 67.6641 0.808594 67.6758 0.808594C67.6875 0.796875 67.7051 0.791016 67.7285 0.791016C67.7988 0.767578 67.8574 0.75 67.9043 0.738281C67.916 0.738281 67.9219 0.738281 67.9219 0.738281L67.957 0.720703H68.0098H68.0273H68.0625C68.1445 0.720703 68.2031 0.726563 68.2383 0.738281C68.25 0.738281 68.2793 0.75 68.3262 0.773438C68.3613 0.773438 68.3906 0.779297 68.4141 0.791016C68.4844 0.826172 68.5488 0.873047 68.6074 0.931641L68.6953 1.01953C68.6953 1.03125 68.707 1.04883 68.7305 1.07227C68.7539 1.08398 68.7656 1.0957 68.7656 1.10742ZM70.5762 0.720703C70.7754 0.744141 70.9395 0.826172 71.0684 0.966797C71.2324 1.10742 71.3145 1.30078 71.3145 1.54688V2.44336V16.3301H70.7168L71.3145 17.0332V17.1738C71.3145 17.3848 71.2441 17.5723 71.1035 17.7363C70.9629 17.9004 70.7871 17.9883 70.5762 18H70.4707H70.4004C70.1895 17.9883 70.0078 17.9004 69.8555 17.7363C69.7148 17.5723 69.6445 17.3848 69.6445 17.1738V2.39062H70.2598L69.6445 1.6875V1.54688C69.6445 1.33594 69.7148 1.14844 69.8555 0.984375C70.0078 0.820312 70.1895 0.732422 70.4004 0.720703H70.4707H70.5059H70.5762ZM88.5938 17.0332C88.6289 17.2676 88.5703 17.4902 88.418 17.7012L88.3301 17.7891C88.2949 17.8242 88.2656 17.8477 88.2422 17.8594C88.2305 17.8594 88.2129 17.8652 88.1895 17.877C88.1777 17.8887 88.166 17.9004 88.1543 17.9121C88.1426 17.9238 88.1191 17.9297 88.084 17.9297C88.0605 17.9297 88.043 17.9355 88.0312 17.9473C87.9844 17.9707 87.9551 17.9824 87.9434 17.9824C87.9082 17.9941 87.8555 18 87.7852 18C87.7031 18 87.6445 17.9941 87.6094 17.9824C87.5156 17.959 87.4512 17.9355 87.416 17.9121C87.4043 17.9004 87.3867 17.8887 87.3633 17.877C87.3516 17.8652 87.3398 17.8594 87.3281 17.8594C87.3047 17.8477 87.2812 17.8301 87.2578 17.8066C87.2461 17.7949 87.2227 17.7773 87.1875 17.7539L87.1348 17.7012C87.123 17.6895 87.1172 17.6777 87.1172 17.666C87.1172 17.6543 87.1113 17.6426 87.0996 17.6309C87.0879 17.6191 87.0762 17.6074 87.0645 17.5957C87.0527 17.584 87.0469 17.5723 87.0469 17.5605V17.543H87.0293C87.0176 17.543 87.0117 17.5371 87.0117 17.5254L86.4668 16.3301L86.1328 15.627L86.0977 15.5566L85.3418 13.9395L83.1797 9.36914H77.502L75.3574 13.9219L74.584 15.5566L74.5664 15.627L74.2148 16.3301L74.0742 16.6641L73.7754 16.3301H73.125L73.7402 17.0508V17.1738C73.7402 17.3027 73.7051 17.4316 73.6348 17.5605C73.5996 17.6309 73.5527 17.6953 73.4941 17.7539C73.4355 17.8125 73.3711 17.8594 73.3008 17.8945L73.2656 17.9121L73.2305 17.9297C73.207 17.9297 73.1719 17.9355 73.125 17.9473C73.0898 17.959 73.0664 17.9707 73.0547 17.9824L73.0371 18C73.0254 18 73.0137 18 73.002 18H72.9141H72.8086H72.7734L72.7383 17.9824C72.7266 17.9824 72.709 17.9766 72.6855 17.9648H72.6504C72.6387 17.9648 72.6328 17.9648 72.6328 17.9648C72.6328 17.9531 72.627 17.9473 72.6152 17.9473C72.6035 17.9473 72.5859 17.9414 72.5625 17.9297C72.5508 17.9297 72.5332 17.9238 72.5098 17.9121C72.4863 17.8887 72.4688 17.8711 72.457 17.8594C72.4102 17.8359 72.375 17.8125 72.3516 17.7891C72.3164 17.7656 72.2871 17.7363 72.2637 17.7012C72.252 17.6895 72.2402 17.6777 72.2285 17.666C72.2168 17.6426 72.2109 17.625 72.2109 17.6133C72.1992 17.6016 72.1816 17.5781 72.1582 17.543V17.5078C72.1465 17.4961 72.1406 17.4844 72.1406 17.4727C72.1406 17.4492 72.1348 17.4316 72.123 17.4199C72.1113 17.4199 72.1055 17.4141 72.1055 17.4023V17.3496V17.332C72.0938 17.3086 72.0879 17.291 72.0879 17.2793V17.2441V17.209V17.1387V17.0859V17.0332V17.0156L72.1055 16.998V16.9805L72.1582 16.8223L72.3691 16.3477L72.6504 15.7852L72.8789 15.293L73.4238 14.0977L73.7402 13.4473L73.916 13.043L74.1621 12.5508L74.3203 12.2168L74.5664 11.707L75.6562 9.36914L76.4473 7.69922L78.8555 2.56641L78.9434 2.39062L79.4883 1.19531C79.6172 0.914062 79.8281 0.755859 80.1211 0.720703H80.1387H80.1914H80.209H80.2617H80.332H80.3496H80.3672H80.4375H80.543H80.5605C80.8535 0.755859 81.0645 0.914062 81.1934 1.19531L81.7559 2.39062L81.8438 2.56641L84.252 7.69922L85.0254 9.36914L86.1328 11.707L86.3613 12.2168L86.9414 13.4473L87.2578 14.0977L87.873 15.4336V15.4512L88.3125 16.3477C88.2773 16.3359 88.2246 16.3301 88.1543 16.3301H87.9961L88.5938 17.0332ZM78.2754 7.69922H82.4062L81.1934 5.11523L80.3496 3.30469L79.5234 5.04492L78.2754 7.69922ZM105.117 0.720703C105.34 0.720703 105.533 0.802734 105.697 0.966797C105.861 1.10742 105.943 1.30078 105.943 1.54688V16.3301H105.363L105.943 17.0156V17.1738V17.2617C105.943 17.3086 105.932 17.3555 105.908 17.4023C105.908 17.4141 105.902 17.4375 105.891 17.4727C105.891 17.4961 105.885 17.5137 105.873 17.5254C105.861 17.5371 105.855 17.5488 105.855 17.5605C105.855 17.5723 105.85 17.584 105.838 17.5957C105.803 17.666 105.727 17.748 105.609 17.8418L105.504 17.8945C105.504 17.9062 105.498 17.9121 105.486 17.9121C105.475 17.9238 105.451 17.9355 105.416 17.9473C105.393 17.959 105.375 17.9648 105.363 17.9648C105.34 17.9766 105.299 17.9824 105.24 17.9824C105.229 17.9824 105.205 17.9883 105.17 18C105.146 18 105.129 18 105.117 18C105.023 18 104.959 17.9941 104.924 17.9824C104.76 17.9473 104.625 17.8652 104.52 17.7363L103.465 16.6289L103.184 16.3301L102.902 16.0488L101.76 14.8535L98.5254 11.4434L96.8555 9.70312L96.5391 9.36914L94.957 7.69922L92.4609 5.08008L91.8984 4.48242L91.3184 3.88477L91.3008 3.86719L91.0723 3.62109V16.3301H90.4922L91.0723 17.0156V17.1738C91.0723 17.3965 90.9902 17.5898 90.8262 17.7539C90.6738 17.918 90.4805 18 90.2461 18C90.0117 18 89.8125 17.918 89.6484 17.7539C89.4844 17.5898 89.4023 17.3965 89.4023 17.1738V2.37305L90.0352 2.39062L89.4023 1.66992V1.54688C89.4023 1.37109 89.4785 1.19531 89.6309 1.01953C89.6426 1.00781 89.6602 0.984375 89.6836 0.949219L90.0176 0.755859L90.2109 0.720703H90.2285H90.2637C90.3223 0.720703 90.3691 0.726563 90.4043 0.738281C90.4395 0.738281 90.4805 0.75 90.5273 0.773438C90.668 0.808594 90.7793 0.878906 90.8613 0.984375L91.8984 2.07422L92.1973 2.39062L92.4609 2.6543L93.6035 3.86719L96.8555 7.27734L97.2598 7.69922L98.5254 9.03516L98.8418 9.36914L102.902 13.623L103.465 14.2207L104.062 14.8535L104.256 15.0645L104.291 15.082V2.39062H104.906L104.291 1.66992V1.54688C104.291 1.3125 104.367 1.11914 104.52 0.966797C104.684 0.802734 104.883 0.720703 105.117 0.720703Z" fill="black"/>
</svg>
